<?xml version="1.0" encoding="UTF-8"?>
<!DOCTYPE svg PUBLIC "-//W3C//DTD SVG 1.1//EN" "http://www.w3.org/Graphics/SVG/1.1/DTD/svg11.dtd">
<!-- Creator: CorelDRAW -->
<svg xmlns="http://www.w3.org/2000/svg" xml:space="preserve" width="375px" height="375px" version="1.1" style="shape-rendering:geometricPrecision; text-rendering:geometricPrecision; image-rendering:optimizeQuality; fill-rule:evenodd; clip-rule:evenodd"
viewBox="0 0 375 375"
 xmlns:xlink="http://www.w3.org/1999/xlink"
 xmlns:xodm="http://www.corel.com/coreldraw/odm/2003">
 <defs>
  <style type="text/css">
   <![CDATA[
    .fil1 {fill:#332C2B}
    .fil0 {fill:#FEA305}
   ]]>
  </style>
 </defs>
 <g id="圖層_x0020_1">
  <metadata id="CorelCorpID_0Corel-Layer"/>
  <rect class="fil0" x="619.52" y="-70.91" width="23.37" height="23.37"/>
  <path class="fil1" d="M438.91 57.78l43.44 -61.91 -36.74 -55.13 19.38 0 17.3 25.77c4.66,6.92 7.89,12.19 9.74,15.86 2.78,-4.55 6.03,-9.4 9.78,-14.53l19.16 -27.1 17.95 0 -37.43 54.37 42.07 62.67 -19.92 0 -27.18 -40.77c-1.77,-2.64 -3.45,-5.27 -5.03,-7.88 -2.74,4.37 -4.68,7.43 -5.88,9.16l-27.2 39.49 -19.44 0z"/>
  <path class="fil1" d="M678.73 57.53l0 -66.35c0,-4.67 -0.28,-11.95 -0.82,-21.82l11.85 0c0.75,6.35 1.13,13.04 1.13,20.04l0.37 0c2.81,-7.83 6.48,-13.42 11.06,-16.76 4.59,-3.37 10.52,-5.06 17.75,-5.06 2.8,0 5.37,0.27 7.77,0.8l0 10.26c-2.53,-0.5 -5.68,-0.77 -9.45,-0.77 -8.39,0 -14.93,3.11 -19.63,9.32 -4.72,6.21 -7.09,14.72 -7.09,25.57l0 44.77 -12.94 0z"/>
  <path class="fil1" d="M743.79 57.53l0 -66.35c0,-4.67 -0.27,-11.95 -0.82,-21.82l11.85 0c0.75,6.35 1.13,13.04 1.13,20.04l0.37 0c2.81,-7.83 6.48,-13.42 11.07,-16.76 4.59,-3.37 10.51,-5.06 17.74,-5.06 2.81,0 5.37,0.27 7.77,0.8l0 10.26c-2.53,-0.5 -5.68,-0.77 -9.45,-0.77 -8.39,0 -14.93,3.11 -19.63,9.32 -4.72,6.21 -7.08,14.72 -7.08,25.57l0 44.77 -12.95 0z"/>
  <path class="fil1" d="M550.31 57.78l44.89 -117.04 18.71 0 47.63 117.04 -18.75 0 -11.34 -29.72 -53.04 0 -10.63 29.72 -17.47 0zm33 -43.27l42.92 0 -13.14 -34.93c-3.95,-10.61 -6.94,-19.38 -9.03,-26.3 -1.73,8.21 -4.04,16.27 -6.94,24.25l-13.81 36.98z"/>
  <g id="_1344108740704">
   <rect class="fil0" x="190.62" y="123.65" width="23.38" height="23.38"/>
   <path class="fil1" d="M9.98 252.35l43.44 -61.92 -36.74 -55.14 19.39 0 17.29 25.78c4.66,6.91 7.89,12.19 9.75,15.86 2.77,-4.55 6.03,-9.4 9.77,-14.53l19.17 -27.11 17.95 0 -37.43 54.38 42.07 62.68 -19.92 0 -27.18 -40.77c-1.77,-2.64 -3.46,-5.28 -5.03,-7.89 -2.74,4.37 -4.69,7.43 -5.89,9.16l-27.2 39.5 -19.44 0z"/>
   <path class="fil1" d="M249.83 252.1l0 -66.36c0,-4.67 -0.27,-11.95 -0.82,-21.83l11.85 0c0.75,6.36 1.13,13.05 1.13,20.05l0.38 0c2.81,-7.83 6.47,-13.42 11.06,-16.76 4.59,-3.37 10.52,-5.06 17.74,-5.06 2.81,0 5.38,0.27 7.78,0.8l0 10.26c-2.53,-0.5 -5.69,-0.77 -9.45,-0.77 -8.4,0 -14.94,3.11 -19.63,9.32 -4.73,6.21 -7.09,14.72 -7.09,25.58l0 44.77 -12.95 0z"/>
   <path class="fil1" d="M314.9 252.1l0 -66.36c0,-4.67 -0.27,-11.95 -0.82,-21.83l11.85 0c0.76,6.36 1.13,13.05 1.13,20.05l0.38 0c2.81,-7.83 6.47,-13.42 11.06,-16.76 4.59,-3.37 10.52,-5.06 17.75,-5.06 2.81,0 5.37,0.27 7.77,0.8l0 10.26c-2.53,-0.5 -5.68,-0.77 -9.45,-0.77 -8.39,0 -14.94,3.11 -19.63,9.32 -4.73,6.21 -7.09,14.72 -7.09,25.58l0 44.77 -12.95 0z"/>
   <path class="fil1" d="M121.4 252.35l44.89 -117.06 18.71 0 47.64 117.06 -18.75 0 -11.35 -29.73 -53.04 0 -10.64 29.73 -17.46 0zm33 -43.28l42.92 0 -13.13 -34.93c-3.96,-10.62 -6.95,-19.39 -9.03,-26.31 -1.73,8.21 -4.05,16.28 -6.95,24.26l-13.81 36.98z"/>
  </g>
 </g>
</svg>
